<svg width="623" height="791" viewBox="0 0 623 791" fill="none" xmlns="http://www.w3.org/2000/svg">
<mask id="path-1-inside-1_44_54" fill="white">
<path fill-rule="evenodd" clip-rule="evenodd" d="M572.928 694.815V347.45C572.928 336.229 572.99 325.132 573.051 314.183C574.033 137.944 574.802 0.0853271 313.919 0.0853271C46.4985 0.0853271 48.3473 129.387 50.753 297.627C50.9856 313.898 51.2235 330.533 51.2235 347.45L51.2235 694.815H108.662H572.928ZM507.983 692.037V402.208C507.983 392.845 508.03 383.586 508.075 374.451C508.814 227.404 509.391 112.379 313.378 112.379C112.451 112.379 113.841 220.263 115.648 360.637C115.823 374.213 116.002 388.093 116.002 402.208L116.002 692.037H507.983Z"/>
</mask>
<path fill-rule="evenodd" clip-rule="evenodd" d="M572.928 694.815V347.45C572.928 336.229 572.99 325.132 573.051 314.183C574.033 137.944 574.802 0.0853271 313.919 0.0853271C46.4985 0.0853271 48.3473 129.387 50.753 297.627C50.9856 313.898 51.2235 330.533 51.2235 347.45L51.2235 694.815H108.662H572.928ZM507.983 692.037V402.208C507.983 392.845 508.03 383.586 508.075 374.451C508.814 227.404 509.391 112.379 313.378 112.379C112.451 112.379 113.841 220.263 115.648 360.637C115.823 374.213 116.002 388.093 116.002 402.208L116.002 692.037H507.983Z" fill="white"/>
<path d="M572.928 694.815V699.815H577.928V694.815H572.928ZM573.051 314.183L578.051 314.211L578.051 314.211L573.051 314.183ZM50.753 297.627L55.7525 297.555L50.753 297.627ZM51.2235 347.45L56.2235 347.45V347.45H51.2235ZM51.2235 694.815L46.2235 694.815L46.2235 699.815H51.2235V694.815ZM507.983 692.037V697.037H512.983V692.037H507.983ZM508.075 374.451L513.075 374.476L513.075 374.476L508.075 374.451ZM115.648 360.637L110.648 360.702L110.648 360.702L115.648 360.637ZM116.002 402.208L121.002 402.208V402.208H116.002ZM116.002 692.037L111.002 692.037L111.002 697.037H116.002V692.037ZM567.928 347.45V694.815H577.928V347.45H567.928ZM568.051 314.155C567.99 325.102 567.928 336.213 567.928 347.45H577.928C577.928 336.245 577.99 325.162 578.051 314.211L568.051 314.155ZM313.919 5.08533C443.594 5.08533 506.352 39.3125 537.344 93.5261C553.002 120.917 560.857 153.891 564.689 191.264C568.522 228.652 568.297 270.027 568.051 314.155L578.051 314.211C578.296 270.219 578.535 228.272 574.636 190.245C570.736 152.202 562.662 117.667 546.025 88.5632C512.426 29.7878 445.127 -4.91467 313.919 -4.91467V5.08533ZM55.7525 297.555C55.15 255.421 54.5944 216.104 58.2257 180.669C61.8546 145.259 69.6317 114.158 85.4155 88.3766C116.699 37.277 180.797 5.08533 313.919 5.08533V-4.91467C179.621 -4.91467 110.933 27.5443 76.8869 83.1553C60.0061 110.729 51.9826 143.498 48.2778 179.65C44.5755 215.777 45.1531 255.712 45.7535 297.698L55.7525 297.555ZM56.2235 347.45C56.2235 330.491 55.985 313.821 55.7525 297.555L45.7535 297.698C45.9862 313.974 46.2235 330.574 46.2235 347.45H56.2235ZM56.2235 694.815L56.2235 347.45L46.2235 347.45L46.2235 694.815L56.2235 694.815ZM108.662 689.815H51.2235V699.815H108.662V689.815ZM572.928 689.815H108.662V699.815H572.928V689.815ZM502.983 402.208V692.037H512.983V402.208H502.983ZM503.076 374.426C503.03 383.559 502.983 392.831 502.983 402.208H512.983C512.983 392.86 513.03 383.613 513.075 374.476L503.076 374.426ZM313.378 117.379C361.942 117.379 397.85 124.512 424.448 137.164C450.926 149.76 468.415 167.934 480.063 190.561C491.777 213.316 497.673 240.756 500.551 271.926C503.429 303.1 503.26 337.603 503.076 374.426L513.075 374.476C513.26 337.776 513.44 302.758 510.509 271.007C507.577 239.253 501.505 210.366 488.954 185.984C476.337 161.474 457.264 141.701 428.744 128.134C400.345 114.625 362.819 107.379 313.378 107.379V117.379ZM120.648 360.573C120.195 325.412 119.778 292.628 122.504 263.086C125.23 233.554 131.067 207.684 142.866 186.282C166.126 144.092 213.709 117.379 313.378 117.379V107.379C212.12 107.379 159.935 134.608 134.109 181.454C121.365 204.57 115.331 231.99 112.547 262.167C109.763 292.334 110.197 325.675 110.648 360.702L120.648 360.573ZM121.002 402.208C121.002 388.055 120.822 374.144 120.648 360.573L110.648 360.702C110.823 374.282 111.002 388.13 111.002 402.208H121.002ZM121.002 692.037L121.002 402.208L111.002 402.208L111.002 692.037L121.002 692.037ZM507.983 687.037H116.002V697.037H507.983V687.037Z" fill="#919191" mask="url(#path-1-inside-1_44_54)"/>
<path d="M37.942 755.893V694.537H585.539V755.893V758.393H588.039H620.038V817.249H3.44299V758.393H35.442H37.942V755.893Z" stroke="#919191" stroke-width="5"/>
<path d="M470.33 422.581C470.33 438.979 457.306 452.188 441.341 452.188C425.376 452.188 412.352 438.979 412.352 422.581C412.352 406.184 425.376 392.975 441.341 392.975C457.306 392.975 470.33 406.184 470.33 422.581Z" fill="white" stroke="#919191" stroke-width="5"/>
</svg>
