<svg width="207" height="204" viewBox="0 0 207 204" fill="none" xmlns="http://www.w3.org/2000/svg">
<circle cx="108.741" cy="37.6759" r="34.6944" fill="white" stroke="#919191" stroke-width="5"/>
<path d="M98.4917 107.084V42.7816C98.8638 42.426 99.4478 41.9352 100.265 41.4347C101.948 40.404 104.687 39.2898 108.741 39.2898C112.794 39.2898 115.533 40.404 117.216 41.4347C118.033 41.9352 118.617 42.426 118.989 42.7816V107.361C116.637 105.979 113.325 104.805 108.825 104.653C104.265 104.499 100.891 105.633 98.4917 107.084Z" fill="white" stroke="#919191" stroke-width="5"/>
<path d="M150.892 173.685C150.892 180.886 146.55 187.703 138.919 192.832C131.304 197.95 120.642 201.197 108.741 201.197C96.8392 201.197 86.1768 197.95 78.5617 192.832C70.931 187.703 66.5889 180.886 66.5889 173.685C66.5889 166.484 70.931 159.667 78.5617 154.538C86.1768 149.42 96.8392 146.173 108.741 146.173C120.642 146.173 131.304 149.42 138.919 154.538C146.55 159.667 150.892 166.484 150.892 173.685Z" fill="white" stroke="#919191" stroke-width="5"/>
<path d="M3.32089 161.691C4.35892 146.323 14.9304 132.119 32.2318 121.471C50.4274 110.272 75.7222 103.264 103.794 103.264C131.866 103.264 157.161 110.272 175.357 121.471C192.658 132.119 203.23 146.323 204.268 161.691H3.32089Z" fill="white" stroke="#919191" stroke-width="5"/>
</svg>
